<?xml version="1.0" encoding="UTF-8" standalone="no"?>
<!DOCTYPE svg PUBLIC "-//W3C//DTD SVG 1.1//EN"
 "http://www.w3.org/Graphics/SVG/1.1/DTD/svg11.dtd">
<!-- Generated by graphviz version 2.40.1 (20161225.0304)
 -->
<!-- Title: calls Pages: 1 -->
<svg width="1213pt" height="1442pt"
 viewBox="0.00 0.00 1212.86 1442.00" xmlns="http://www.w3.org/2000/svg" xmlns:xlink="http://www.w3.org/1999/xlink">
<g id="graph0" class="graph" transform="scale(1 1) rotate(0) translate(4 1438)">
<title>calls</title>
<polygon fill="#ffffff" stroke="transparent" points="-4,4 -4,-1438 1208.8574,-1438 1208.8574,4 -4,4"/>
<text text-anchor="middle" x="602.4287" y="-6.8" font-family="Times,serif" font-size="14.00" fill="#000000">Function/method calls and global references</text>
<g id="clust1" class="cluster">
<title>cluster_cache</title>
<polygon fill="none" stroke="#000000" points="1077.8154,-190 1077.8154,-372 1196.8574,-372 1196.8574,-190 1077.8154,-190"/>
<text text-anchor="middle" x="1137.3364" y="-356.8" font-family="Times,serif" font-size="14.00" fill="#000000">Cache API</text>
</g>
<g id="clust2" class="cluster">
<title>cluster_common</title>
<polygon fill="none" stroke="#000000" points="213.9106,-852 213.9106,-980 600.0078,-980 600.0078,-852 213.9106,-852"/>
<text text-anchor="middle" x="406.9592" y="-964.8" font-family="Times,serif" font-size="14.00" fill="#000000">Common includes</text>
</g>
<g id="clust3" class="cluster">
<title>cluster_menu</title>
<polygon fill="none" stroke="#000000" points="195.2451,-988 195.2451,-1298 1057.8154,-1298 1057.8154,-988 195.2451,-988"/>
<text text-anchor="middle" x="626.5303" y="-1282.8" font-family="Times,serif" font-size="14.00" fill="#000000">Menu includes</text>
</g>
<g id="clust4" class="cluster">
<title>cluster_user</title>
<polygon fill="none" stroke="#000000" points="687.6699,-1352 687.6699,-1426 1044.6016,-1426 1044.6016,-1352 687.6699,-1352"/>
<text text-anchor="middle" x="866.1357" y="-1410.8" font-family="Times,serif" font-size="14.00" fill="#000000">User module</text>
</g>
<g id="clust5" class="cluster">
<title>cluster_variable</title>
<polygon fill="none" stroke="#000000" points="915.0186,-358 915.0186,-486 1016.2051,-486 1016.2051,-358 915.0186,-358"/>
<text text-anchor="middle" x="965.6118" y="-470.8" font-family="Times,serif" font-size="14.00" fill="#000000">Variables</text>
</g>
<!-- hook_admin_paths -->
<g id="node1" class="node">
<title>hook_admin_paths</title>
<text text-anchor="middle" x="965.6118" y="-599.8" font-family="Times,serif" font-size="14.00" fill="#ffa500">hook_admin_paths</text>
</g>
<!-- hook_admin_paths_alter -->
<g id="node2" class="node">
<title>hook_admin_paths_alter</title>
<text text-anchor="middle" x="965.6118" y="-545.8" font-family="Times,serif" font-size="14.00" fill="#ffa500">hook_admin_paths_alter</text>
</g>
<!-- hook_menu_get_item_alter -->
<g id="node3" class="node">
<title>hook_menu_get_item_alter</title>
<text text-anchor="middle" x="736.708" y="-1319.8" font-family="Times,serif" font-size="14.00" fill="#ffa500">hook_menu_get_item_alter</text>
</g>
<!-- hook_path_delete -->
<g id="node4" class="node">
<title>hook_path_delete</title>
<text text-anchor="middle" x="488.3594" y="-729.8" font-family="Times,serif" font-size="14.00" fill="#ffa500">hook_path_delete</text>
</g>
<!-- hook_path_insert -->
<g id="node5" class="node">
<title>hook_path_insert</title>
<text text-anchor="middle" x="488.3594" y="-421.8" font-family="Times,serif" font-size="14.00" fill="#ffa500">hook_path_insert</text>
</g>
<!-- hook_path_update -->
<g id="node6" class="node">
<title>hook_path_update</title>
<text text-anchor="middle" x="488.3594" y="-529.8" font-family="Times,serif" font-size="14.00" fill="#ffa500">hook_path_update</text>
</g>
<!-- hook_translated_menu_link_alter -->
<g id="node7" class="node">
<title>hook_translated_menu_link_alter</title>
<text text-anchor="middle" x="488.3594" y="-1319.8" font-family="Times,serif" font-size="14.00" fill="#ffa500">hook_translated_menu_link_alter</text>
</g>
<!-- hook_url_inbound_alter -->
<g id="node8" class="node">
<title>hook_url_inbound_alter</title>
<text text-anchor="middle" x="488.3594" y="-324.8" font-family="Times,serif" font-size="14.00" fill="#ffa500">hook_url_inbound_alter</text>
</g>
<!-- hook_url_outbound_alter -->
<g id="node9" class="node">
<title>hook_url_outbound_alter</title>
<text text-anchor="middle" x="488.3594" y="-821.8" font-family="Times,serif" font-size="14.00" fill="#ffa500">hook_url_outbound_alter</text>
</g>
<!-- DBTNG -->
<g id="node10" class="node">
<title>DBTNG</title>
<text text-anchor="middle" x="1137.3364" y="-664.8" font-family="Times,serif" font-size="14.00" fill="#0000ff">DBTNG</text>
</g>
<!-- q -->
<g id="node11" class="node">
<title>q</title>
<text text-anchor="middle" x="965.6118" y="-150.8" font-family="Times,serif" font-size="14.00" fill="#0000ff">$_GET[&#39;q&#39;]</text>
</g>
<!-- $GLOBALS[&#39;user&#39;] -->
<g id="node12" class="node">
<title>$GLOBALS[&#39;user&#39;]</title>
<text text-anchor="middle" x="965.6118" y="-1319.8" font-family="Times,serif" font-size="14.00" fill="#0000ff">$GLOBALS[&#39;user&#39;]</text>
</g>
<!-- cache_clear_all -->
<g id="node13" class="node">
<title>cache_clear_all</title>
<text text-anchor="middle" x="1137.3364" y="-319.8" font-family="Times,serif" font-size="14.00" fill="#0000ff">cache_clear_all</text>
</g>
<!-- cache_get -->
<g id="node14" class="node">
<title>cache_get</title>
<text text-anchor="middle" x="1137.3364" y="-265.8" font-family="Times,serif" font-size="14.00" fill="#0000ff">cache_get</text>
</g>
<!-- cache_set -->
<g id="node15" class="node">
<title>cache_set</title>
<text text-anchor="middle" x="1137.3364" y="-211.8" font-family="Times,serif" font-size="14.00" fill="#0000ff">cache_set</text>
</g>
<!-- drupal_strip_dangerous_protocols -->
<g id="node16" class="node">
<title>drupal_strip_dangerous_protocols</title>
<text text-anchor="middle" x="488.3594" y="-927.8" font-family="Times,serif" font-size="14.00" fill="#0000ff">drupal_strip_dangerous_protocols</text>
</g>
<!-- url -->
<g id="node17" class="node">
<title>url</title>
<text text-anchor="middle" x="271.897" y="-873.8" font-family="Times,serif" font-size="14.00" fill="#0000ff">url</text>
</g>
<!-- url&#45;&gt;hook_url_outbound_alter -->
<g id="edge59" class="edge">
<title>url&#45;&gt;hook_url_outbound_alter</title>
<path fill="none" stroke="#000000" d="M299.1543,-870.336C321.9423,-864.0289 355.3406,-855.0174 384.7109,-848 389.3852,-846.8832 394.1848,-845.7652 399.0356,-844.6579"/>
<polygon fill="#000000" stroke="#000000" points="400.0543,-848.0162 409.0405,-842.4039 398.5157,-841.1874 400.0543,-848.0162"/>
</g>
<!-- url_is_external -->
<g id="node18" class="node">
<title>url_is_external</title>
<text text-anchor="middle" x="271.897" y="-927.8" font-family="Times,serif" font-size="14.00" fill="#0000ff">url_is_external</text>
</g>
<!-- url_is_external&#45;&gt;drupal_strip_dangerous_protocols -->
<g id="edge60" class="edge">
<title>url_is_external&#45;&gt;drupal_strip_dangerous_protocols</title>
<path fill="none" stroke="#000000" d="M322.1019,-932C337.9086,-932 356.0598,-932 374.4304,-932"/>
<polygon fill="#000000" stroke="#000000" points="374.6455,-935.5001 384.6454,-932 374.6454,-928.5001 374.6455,-935.5001"/>
</g>
<!-- _menu_check_access -->
<g id="node19" class="node">
<title>_menu_check_access</title>
<text text-anchor="middle" x="488.3594" y="-1245.8" font-family="Times,serif" font-size="14.00" fill="#0000ff">_menu_check_access</text>
</g>
<!-- menu_unserialize -->
<g id="node29" class="node">
<title>menu_unserialize</title>
<text text-anchor="middle" x="736.708" y="-1245.8" font-family="Times,serif" font-size="14.00" fill="#0000ff">menu_unserialize</text>
</g>
<!-- _menu_check_access&#45;&gt;menu_unserialize -->
<g id="edge41" class="edge">
<title>_menu_check_access&#45;&gt;menu_unserialize</title>
<path fill="none" stroke="#000000" d="M556.8791,-1250C591.8999,-1250 634.3673,-1250 669.2375,-1250"/>
<polygon fill="#000000" stroke="#000000" points="669.3273,-1253.5001 679.3273,-1250 669.3273,-1246.5001 669.3273,-1253.5001"/>
</g>
<!-- user_access -->
<g id="node30" class="node">
<title>user_access</title>
<text text-anchor="middle" x="736.708" y="-1373.8" font-family="Times,serif" font-size="14.00" fill="#0000ff">user_access</text>
</g>
<!-- _menu_check_access&#45;&gt;user_access -->
<g id="edge42" class="edge">
<title>_menu_check_access&#45;&gt;user_access</title>
<path fill="none" stroke="#000000" d="M552.2203,-1268.0582C569.1646,-1275.0777 586.4863,-1284.5179 600.0078,-1297 619.8724,-1315.3375 606.7833,-1334.2554 628.0078,-1351 644.2579,-1363.8201 665.7876,-1370.647 685.397,-1374.2482"/>
<polygon fill="#000000" stroke="#000000" points="685.0113,-1377.7309 695.4382,-1375.8521 686.1155,-1370.8186 685.0113,-1377.7309"/>
</g>
<!-- _menu_check_rebuild -->
<g id="node20" class="node">
<title>_menu_check_rebuild</title>
<text text-anchor="middle" x="736.708" y="-1009.8" font-family="Times,serif" font-size="14.00" fill="#0000ff">_menu_check_rebuild</text>
</g>
<!-- _menu_item_localize -->
<g id="node21" class="node">
<title>_menu_item_localize</title>
<text text-anchor="middle" x="488.3594" y="-1191.8" font-family="Times,serif" font-size="14.00" fill="#0000ff">_menu_item_localize</text>
</g>
<!-- _menu_item_localize&#45;&gt;menu_unserialize -->
<g id="edge43" class="edge">
<title>_menu_item_localize&#45;&gt;menu_unserialize</title>
<path fill="none" stroke="#000000" d="M556.5502,-1210.8272C591.5764,-1218.4431 634.1187,-1227.6934 669.0658,-1235.2921"/>
<polygon fill="#000000" stroke="#000000" points="668.6631,-1238.7863 679.1784,-1237.491 670.1504,-1231.9461 668.6631,-1238.7863"/>
</g>
<!-- _menu_link_translate -->
<g id="node22" class="node">
<title>_menu_link_translate</title>
<text text-anchor="middle" x="271.897" y="-1164.8" font-family="Times,serif" font-size="14.00" fill="#0000ff">_menu_link_translate</text>
</g>
<!-- _menu_link_translate&#45;&gt;hook_translated_menu_link_alter -->
<g id="edge48" class="edge">
<title>_menu_link_translate&#45;&gt;hook_translated_menu_link_alter</title>
<path fill="none" stroke="#000000" d="M282.0182,-1187.3901C298.2166,-1215.0743 332.7182,-1267.3848 383.4181,-1300.6139"/>
<polygon fill="#000000" stroke="#000000" points="381.6966,-1303.665 392.0358,-1305.9785 385.396,-1297.7223 381.6966,-1303.665"/>
</g>
<!-- _menu_link_translate&#45;&gt;_menu_check_access -->
<g id="edge44" class="edge">
<title>_menu_link_translate&#45;&gt;_menu_check_access</title>
<path fill="none" stroke="#000000" d="M305.2304,-1187.039C327.3137,-1198.4647 357.1808,-1212.931 384.7109,-1223 392.895,-1225.9933 401.556,-1228.7955 410.2452,-1231.3762"/>
<polygon fill="#000000" stroke="#000000" points="409.4657,-1234.7938 420.0435,-1234.1942 411.4005,-1228.0665 409.4657,-1234.7938"/>
</g>
<!-- _menu_link_translate&#45;&gt;_menu_item_localize -->
<g id="edge45" class="edge">
<title>_menu_link_translate&#45;&gt;_menu_item_localize</title>
<path fill="none" stroke="#000000" d="M340.6844,-1177.5801C362.7911,-1180.3375 387.4412,-1183.4122 410.1714,-1186.2474"/>
<polygon fill="#000000" stroke="#000000" points="409.7654,-1189.7238 420.1218,-1187.4885 410.6319,-1182.7776 409.7654,-1189.7238"/>
</g>
<!-- _menu_link_map_translate -->
<g id="node23" class="node">
<title>_menu_link_map_translate</title>
<text text-anchor="middle" x="965.6118" y="-1162.8" font-family="Times,serif" font-size="14.00" fill="#0000ff">_menu_link_map_translate</text>
</g>
<!-- _menu_link_translate&#45;&gt;_menu_link_map_translate -->
<g id="edge46" class="edge">
<title>_menu_link_translate&#45;&gt;_menu_link_map_translate</title>
<path fill="none" stroke="#000000" d="M300.7346,-1150.7421C322.7779,-1137.9176 354.4305,-1121.8737 384.7109,-1115 431.3677,-1104.4089 561.3874,-1086.7601 600.0078,-1115 633.1386,-1139.2258 594.877,-1178.7742 628.0078,-1203 667.0055,-1231.5158 797.6075,-1210.0043 845.4082,-1203 865.9677,-1199.9874 887.8941,-1194.2219 907.3145,-1188.1733"/>
<polygon fill="#000000" stroke="#000000" points="908.4687,-1191.4788 916.9245,-1185.0952 906.3334,-1184.8124 908.4687,-1191.4788"/>
</g>
<!-- _menu_load_objects -->
<g id="node24" class="node">
<title>_menu_load_objects</title>
<text text-anchor="middle" x="488.3594" y="-1137.8" font-family="Times,serif" font-size="14.00" fill="#0000ff">_menu_load_objects</text>
</g>
<!-- _menu_link_translate&#45;&gt;_menu_load_objects -->
<g id="edge47" class="edge">
<title>_menu_link_translate&#45;&gt;_menu_load_objects</title>
<path fill="none" stroke="#000000" d="M340.6844,-1160.4199C363.4382,-1157.5818 388.8864,-1154.4076 412.1622,-1151.5043"/>
<polygon fill="#000000" stroke="#000000" points="412.847,-1154.9461 422.3369,-1150.2352 411.9805,-1147.9999 412.847,-1154.9461"/>
</g>
<!-- _menu_translate -->
<g id="node25" class="node">
<title>_menu_translate</title>
<text text-anchor="middle" x="736.708" y="-1117.8" font-family="Times,serif" font-size="14.00" fill="#0000ff">_menu_translate</text>
</g>
<!-- _menu_translate&#45;&gt;_menu_link_map_translate -->
<g id="edge49" class="edge">
<title>_menu_translate&#45;&gt;_menu_link_map_translate</title>
<path fill="none" stroke="#000000" d="M790.955,-1132.6644C814.9754,-1137.3865 843.9416,-1143.081 871.3189,-1148.463"/>
<polygon fill="#000000" stroke="#000000" points="870.8339,-1151.9346 881.3212,-1150.4294 872.1842,-1145.0661 870.8339,-1151.9346"/>
</g>
<!-- menu_get_ancestors -->
<g id="node26" class="node">
<title>menu_get_ancestors</title>
<text text-anchor="middle" x="736.708" y="-1063.8" font-family="Times,serif" font-size="14.00" fill="#0000ff">menu_get_ancestors</text>
</g>
<!-- variable_get -->
<g id="node32" class="node">
<title>variable_get</title>
<text text-anchor="middle" x="965.6118" y="-379.8" font-family="Times,serif" font-size="14.00" fill="#0000ff">variable_get</text>
</g>
<!-- menu_get_ancestors&#45;&gt;variable_get -->
<g id="edge50" class="edge">
<title>menu_get_ancestors&#45;&gt;variable_get</title>
<path fill="none" stroke="#000000" d="M801.8787,-1065.3304C818.4141,-1061.397 834.549,-1054.0983 845.4082,-1041 934.9073,-933.0467 795.5657,-521.8831 881.4082,-411 889.1944,-400.9425 900.7605,-394.567 912.8442,-390.5436"/>
<polygon fill="#000000" stroke="#000000" points="913.9098,-393.8796 922.5838,-387.7958 912.0091,-387.1426 913.9098,-393.8796"/>
</g>
<!-- menu_get_item -->
<g id="node27" class="node">
<title>menu_get_item</title>
<text text-anchor="middle" x="488.3594" y="-1063.8" font-family="Times,serif" font-size="14.00" fill="#0000ff">menu_get_item</text>
</g>
<!-- menu_get_item&#45;&gt;hook_menu_get_item_alter -->
<g id="edge56" class="edge">
<title>menu_get_item&#45;&gt;hook_menu_get_item_alter</title>
<path fill="none" stroke="#000000" d="M540.0162,-1077.9541C561.7581,-1084.776 585.3635,-1096.15 600.0078,-1115 651.5651,-1181.3639 570.1207,-1241.0787 628.0078,-1302 632.256,-1306.4709 637.1429,-1310.1674 642.4422,-1313.2133"/>
<polygon fill="#000000" stroke="#000000" points="641.1889,-1316.4965 651.7097,-1317.747 644.265,-1310.2086 641.1889,-1316.4965"/>
</g>
<!-- menu_get_item&#45;&gt;DBTNG -->
<g id="edge55" class="edge">
<title>menu_get_item&#45;&gt;DBTNG</title>
<path fill="none" stroke="#000000" d="M517.5601,-1049.8735C545.4778,-1032.8298 588.977,-1007.0147 628.0078,-987 814.3382,-891.4511 899.442,-930.9908 1057.8154,-794 1089.3117,-766.7562 1112.7766,-723.9727 1125.7705,-696.2038"/>
<polygon fill="#000000" stroke="#000000" points="1128.9758,-697.6101 1129.9259,-687.0579 1122.6028,-694.7145 1128.9758,-697.6101"/>
</g>
<!-- menu_get_item&#45;&gt;_menu_check_rebuild -->
<g id="edge52" class="edge">
<title>menu_get_item&#45;&gt;_menu_check_rebuild</title>
<path fill="none" stroke="#000000" d="M540.1191,-1056.7456C573.6562,-1049.4534 618.026,-1039.8058 656.125,-1031.5217"/>
<polygon fill="#000000" stroke="#000000" points="657.1484,-1034.881 666.1764,-1029.3361 655.661,-1028.0408 657.1484,-1034.881"/>
</g>
<!-- menu_get_item&#45;&gt;_menu_translate -->
<g id="edge57" class="edge">
<title>menu_get_item&#45;&gt;_menu_translate</title>
<path fill="none" stroke="#000000" d="M540.1191,-1079.2544C578.5981,-1087.6212 631.3374,-1099.0886 672.5041,-1108.0397"/>
<polygon fill="#000000" stroke="#000000" points="671.9211,-1111.4947 682.4365,-1110.1994 673.4085,-1104.6545 671.9211,-1111.4947"/>
</g>
<!-- menu_get_item&#45;&gt;menu_get_ancestors -->
<g id="edge54" class="edge">
<title>menu_get_item&#45;&gt;menu_get_ancestors</title>
<path fill="none" stroke="#000000" d="M540.1191,-1068C575.1661,-1068 622.043,-1068 661.231,-1068"/>
<polygon fill="#000000" stroke="#000000" points="661.2772,-1071.5001 671.2772,-1068 661.2772,-1064.5001 661.2772,-1071.5001"/>
</g>
<!-- menu_rebuild -->
<g id="node28" class="node">
<title>menu_rebuild</title>
<text text-anchor="middle" x="736.708" y="-1171.8" font-family="Times,serif" font-size="14.00" fill="#0000ff">menu_rebuild</text>
</g>
<!-- menu_get_item&#45;&gt;menu_rebuild -->
<g id="edge53" class="edge">
<title>menu_get_item&#45;&gt;menu_rebuild</title>
<path fill="none" stroke="#000000" d="M539.9835,-1074.239C560.3286,-1078.7596 582.8764,-1086.5556 600.0078,-1100 619.7397,-1115.4851 608.0029,-1133.8692 628.0078,-1149 642.9251,-1160.2828 661.9783,-1166.8987 679.9535,-1170.7618"/>
<polygon fill="#000000" stroke="#000000" points="679.3173,-1174.2035 689.7957,-1172.637 680.6275,-1167.3272 679.3173,-1174.2035"/>
</g>
<!-- menu_get_item&#45;&gt;menu_unserialize -->
<g id="edge58" class="edge">
<title>menu_get_item&#45;&gt;menu_unserialize</title>
<path fill="none" stroke="#000000" d="M540.0864,-1079.5655C561.1823,-1086.6389 584.2636,-1097.7642 600.0078,-1115 627.6888,-1145.3035 600.4735,-1172.5631 628.0078,-1203 639.2588,-1215.437 654.376,-1224.7201 669.7532,-1231.5965"/>
<polygon fill="#000000" stroke="#000000" points="668.7515,-1234.9703 679.3291,-1235.5737 671.4365,-1228.5057 668.7515,-1234.9703"/>
</g>
<!-- menu_get_item&#45;&gt;variable_get -->
<g id="edge51" class="edge">
<title>menu_get_item&#45;&gt;variable_get</title>
<path fill="none" stroke="#000000" d="M526.9681,-1049.9925C552.4511,-1035.8841 583.9903,-1013.6693 600.0078,-984 646.0253,-898.7618 563.3371,-621.117 628.0078,-549 693.4935,-475.9743 770.3327,-574.1252 845.4082,-511 881.5629,-480.6002 847.4231,-443.8074 881.4082,-411 890.1235,-402.5868 901.4658,-396.7948 912.9879,-392.8075"/>
<polygon fill="#000000" stroke="#000000" points="914.1076,-396.1253 922.6549,-389.8647 912.069,-389.4287 914.1076,-396.1253"/>
</g>
<!-- user_access&#45;&gt;$GLOBALS[&#39;user&#39;] -->
<g id="edge62" class="edge">
<title>user_access&#45;&gt;$GLOBALS[&#39;user&#39;]</title>
<path fill="none" stroke="#000000" d="M777.8958,-1368.2835C809.7984,-1360.7575 854.8029,-1350.1406 892.7484,-1341.189"/>
<polygon fill="#000000" stroke="#000000" points="893.8084,-1344.5351 902.7376,-1338.8325 892.2011,-1337.7221 893.8084,-1344.5351"/>
</g>
<!-- user_role_permissions -->
<g id="node31" class="node">
<title>user_role_permissions</title>
<text text-anchor="middle" x="965.6118" y="-1373.8" font-family="Times,serif" font-size="14.00" fill="#0000ff">user_role_permissions</text>
</g>
<!-- user_access&#45;&gt;user_role_permissions -->
<g id="edge61" class="edge">
<title>user_access&#45;&gt;user_role_permissions</title>
<path fill="none" stroke="#000000" d="M777.8958,-1378C807.4272,-1378 848.1852,-1378 884.1787,-1378"/>
<polygon fill="#000000" stroke="#000000" points="884.1911,-1381.5001 894.191,-1378 884.191,-1374.5001 884.1911,-1381.5001"/>
</g>
<!-- user_role_permissions&#45;&gt;DBTNG -->
<g id="edge63" class="edge">
<title>user_role_permissions&#45;&gt;DBTNG</title>
<path fill="none" stroke="#000000" d="M1036.8398,-1366.7366C1044.8206,-1362.8714 1052.1136,-1357.7557 1057.8154,-1351 1100.7293,-1300.1544 1129.274,-819.2754 1135.873,-697.1135"/>
<polygon fill="#000000" stroke="#000000" points="1139.3718,-697.227 1136.4103,-687.0545 1132.3818,-696.8536 1139.3718,-697.227"/>
</g>
<!-- variable_set -->
<g id="node33" class="node">
<title>variable_set</title>
<text text-anchor="middle" x="965.6118" y="-433.8" font-family="Times,serif" font-size="14.00" fill="#0000ff">variable_set</text>
</g>
<!-- variable_set&#45;&gt;DBTNG -->
<g id="edge64" class="edge">
<title>variable_set&#45;&gt;DBTNG</title>
<path fill="none" stroke="#000000" d="M1007.6392,-454.6199C1024.9386,-463.1227 1044.0954,-474.9038 1057.8154,-490 1098.2672,-534.5093 1120.7816,-602.9604 1130.835,-641.0241"/>
<polygon fill="#000000" stroke="#000000" points="1127.4914,-642.0779 1133.3447,-650.909 1134.2762,-640.3552 1127.4914,-642.0779"/>
</g>
<!-- variable_set&#45;&gt;cache_clear_all -->
<g id="edge65" class="edge">
<title>variable_set&#45;&gt;cache_clear_all</title>
<path fill="none" stroke="#000000" d="M1007.5664,-430.8048C1024.0788,-426.7097 1042.6712,-420.4436 1057.8154,-411 1082.9236,-395.3432 1105.0387,-369.616 1119.5311,-350.1904"/>
<polygon fill="#000000" stroke="#000000" points="1122.4095,-352.183 1125.4491,-342.0335 1116.7437,-348.0722 1122.4095,-352.183"/>
</g>
<!-- _mongodb_path_resolver -->
<g id="node34" class="node">
<title>_mongodb_path_resolver</title>
<text text-anchor="middle" x="79.5415" y="-1319.8" font-family="Times,serif" font-size="14.00" fill="#000000">_mongodb_path_resolver</text>
</g>
<!-- Resolver::create -->
<g id="node35" class="node">
<title>Resolver::create</title>
<text text-anchor="middle" x="271.897" y="-1319.8" font-family="Times,serif" font-size="14.00" fill="#000000">Resolver::create</text>
</g>
<!-- _mongodb_path_resolver&#45;&gt;Resolver::create -->
<g id="edge1" class="edge">
<title>_mongodb_path_resolver&#45;&gt;Resolver::create</title>
<path fill="none" stroke="#000000" d="M159.1684,-1324C175.5317,-1324 192.554,-1324 208.2632,-1324"/>
<polygon fill="#000000" stroke="#000000" points="208.3767,-1327.5001 218.3766,-1324 208.3766,-1320.5001 208.3767,-1327.5001"/>
</g>
<!-- current_path -->
<g id="node36" class="node">
<title>current_path</title>
<text text-anchor="middle" x="736.708" y="-127.8" font-family="Times,serif" font-size="14.00" fill="#000000">current_path</text>
</g>
<!-- current_path&#45;&gt;q -->
<g id="edge2" class="edge">
<title>current_path&#45;&gt;q</title>
<path fill="none" stroke="#000000" d="M780.0322,-136.3532C818.783,-140.2468 875.5568,-145.9514 916.0919,-150.0243"/>
<polygon fill="#000000" stroke="#000000" points="915.9859,-153.5312 926.2858,-151.0486 916.6858,-146.5663 915.9859,-153.5312"/>
</g>
<!-- drupal_cache_system_paths -->
<g id="node37" class="node">
<title>drupal_cache_system_paths</title>
<text text-anchor="middle" x="488.3594" y="-35.8" font-family="Times,serif" font-size="14.00" fill="#000000">drupal_cache_system_paths</text>
</g>
<!-- drupal_cache_system_paths&#45;&gt;cache_set -->
<g id="edge3" class="edge">
<title>drupal_cache_system_paths&#45;&gt;cache_set</title>
<path fill="none" stroke="#000000" d="M575.12,-33.634C693.1545,-29.1322 906.894,-36.1171 1057.8154,-128 1083.4016,-143.5772 1105.5871,-169.867 1119.9749,-189.6644"/>
<polygon fill="#000000" stroke="#000000" points="1117.2108,-191.8179 1125.8357,-197.9711 1122.9304,-187.7824 1117.2108,-191.8179"/>
</g>
<!-- drupal_cache_system_paths&#45;&gt;current_path -->
<g id="edge4" class="edge">
<title>drupal_cache_system_paths&#45;&gt;current_path</title>
<path fill="none" stroke="#000000" d="M537.1288,-58.0665C579.4166,-73.7319 640.482,-96.3534 683.9105,-112.4413"/>
<polygon fill="#000000" stroke="#000000" points="682.8525,-115.7818 693.4457,-115.9736 685.2842,-109.2177 682.8525,-115.7818"/>
</g>
<!-- drupal_clear_path_cache -->
<g id="node38" class="node">
<title>drupal_clear_path_cache</title>
<text text-anchor="middle" x="488.3594" y="-583.8" font-family="Times,serif" font-size="14.00" fill="#000000">drupal_clear_path_cache</text>
</g>
<!-- drupal_path_alias_whitelist_rebuild -->
<g id="node39" class="node">
<title>drupal_path_alias_whitelist_rebuild</title>
<text text-anchor="middle" x="736.708" y="-479.8" font-family="Times,serif" font-size="14.00" fill="#000000">drupal_path_alias_whitelist_rebuild</text>
</g>
<!-- drupal_clear_path_cache&#45;&gt;drupal_path_alias_whitelist_rebuild -->
<g id="edge5" class="edge">
<title>drupal_clear_path_cache&#45;&gt;drupal_path_alias_whitelist_rebuild</title>
<path fill="none" stroke="#000000" d="M566.5585,-577.3654C578.4591,-573.4733 590.0671,-568.1832 600.0078,-561 619.1003,-547.2037 609.2592,-530.2602 628.0078,-516 632.6721,-512.4523 637.7228,-509.297 643.0067,-506.4907"/>
<polygon fill="#000000" stroke="#000000" points="644.6183,-509.5992 652.0924,-502.0899 641.5668,-503.2993 644.6183,-509.5992"/>
</g>
<!-- drupal_path_alias_whitelist_rebuild&#45;&gt;DBTNG -->
<g id="edge19" class="edge">
<title>drupal_path_alias_whitelist_rebuild&#45;&gt;DBTNG</title>
<path fill="none" stroke="#000000" d="M845.6016,-492.2909C931.7097,-499.6629 1040.2765,-511.0919 1057.8154,-523 1098.8244,-550.8432 1120.5989,-607.0332 1130.4904,-641.0077"/>
<polygon fill="#000000" stroke="#000000" points="1127.1535,-642.0732 1133.1868,-650.7824 1133.9015,-640.2117 1127.1535,-642.0732"/>
</g>
<!-- drupal_path_alias_whitelist_rebuild&#45;&gt;variable_get -->
<g id="edge18" class="edge">
<title>drupal_path_alias_whitelist_rebuild&#45;&gt;variable_get</title>
<path fill="none" stroke="#000000" d="M828.7445,-465.934C834.5723,-463.3448 840.1868,-460.3845 845.4082,-457 867.193,-442.8792 860.1073,-425.8408 881.4082,-411 890.8582,-404.416 902.0012,-399.3721 913.0331,-395.5311"/>
<polygon fill="#000000" stroke="#000000" points="914.1938,-398.8347 922.654,-392.4569 912.0632,-392.1668 914.1938,-398.8347"/>
</g>
<!-- drupal_path_alias_whitelist_rebuild&#45;&gt;variable_set -->
<g id="edge20" class="edge">
<title>drupal_path_alias_whitelist_rebuild&#45;&gt;variable_set</title>
<path fill="none" stroke="#000000" d="M826.5199,-465.9516C856.1536,-459.9965 888.1008,-453.5764 913.8956,-448.3928"/>
<polygon fill="#000000" stroke="#000000" points="914.7084,-451.7995 923.8229,-446.3978 913.3293,-444.9367 914.7084,-451.7995"/>
</g>
<!-- drupal_get_normal_path -->
<g id="node40" class="node">
<title>drupal_get_normal_path</title>
<text text-anchor="middle" x="271.897" y="-324.8" font-family="Times,serif" font-size="14.00" fill="#000000">drupal_get_normal_path</text>
</g>
<!-- drupal_get_normal_path&#45;&gt;hook_url_inbound_alter -->
<g id="edge7" class="edge">
<title>drupal_get_normal_path&#45;&gt;hook_url_inbound_alter</title>
<path fill="none" stroke="#000000" d="M348.823,-329C366.0919,-329 384.5242,-329 402.1438,-329"/>
<polygon fill="#000000" stroke="#000000" points="402.409,-332.5001 412.409,-329 402.409,-325.5001 402.409,-332.5001"/>
</g>
<!-- drupal_lookup_path -->
<g id="node41" class="node">
<title>drupal_lookup_path</title>
<text text-anchor="middle" x="488.3594" y="-270.8" font-family="Times,serif" font-size="14.00" fill="#000000">drupal_lookup_path</text>
</g>
<!-- drupal_get_normal_path&#45;&gt;drupal_lookup_path -->
<g id="edge6" class="edge">
<title>drupal_get_normal_path&#45;&gt;drupal_lookup_path</title>
<path fill="none" stroke="#000000" d="M344.2768,-310.9437C366.7597,-305.335 391.5695,-299.1458 414.1734,-293.5069"/>
<polygon fill="#000000" stroke="#000000" points="415.1933,-296.8598 424.0487,-291.0433 413.4989,-290.0679 415.1933,-296.8598"/>
</g>
<!-- drupal_lookup_path&#45;&gt;DBTNG -->
<g id="edge16" class="edge">
<title>drupal_lookup_path&#45;&gt;DBTNG</title>
<path fill="none" stroke="#000000" d="M552.8054,-281.9803C697.9327,-297.9635 1039.2147,-337.1341 1057.8154,-354 1100.5514,-392.7501 1125.7636,-570.6949 1134.1707,-640.6463"/>
<polygon fill="#000000" stroke="#000000" points="1130.7333,-641.3845 1135.3758,-650.908 1137.6855,-640.568 1130.7333,-641.3845"/>
</g>
<!-- drupal_lookup_path&#45;&gt;cache_get -->
<g id="edge15" class="edge">
<title>drupal_lookup_path&#45;&gt;cache_get</title>
<path fill="none" stroke="#000000" d="M552.6599,-274.5046C683.3808,-273.4975 977.3744,-271.2324 1091.1495,-270.3558"/>
<polygon fill="#000000" stroke="#000000" points="1091.2951,-273.8549 1101.2678,-270.2779 1091.2411,-266.8551 1091.2951,-273.8549"/>
</g>
<!-- drupal_lookup_path&#45;&gt;variable_get -->
<g id="edge12" class="edge">
<title>drupal_lookup_path&#45;&gt;variable_get</title>
<path fill="none" stroke="#000000" d="M552.661,-286.1142C568.5404,-290.0517 585.2262,-295.243 600.0078,-302 613.9165,-308.358 613.9276,-316.0314 628.0078,-322 678.5189,-343.4115 831.0148,-366.0959 912.6631,-377.1459"/>
<polygon fill="#000000" stroke="#000000" points="912.3602,-380.6366 922.7371,-378.4989 913.292,-373.6988 912.3602,-380.6366"/>
</g>
<!-- drupal_lookup_path&#45;&gt;current_path -->
<g id="edge14" class="edge">
<title>drupal_lookup_path&#45;&gt;current_path</title>
<path fill="none" stroke="#000000" d="M519.8129,-256.889C564.6619,-231.0647 647.0027,-183.6526 696.3123,-155.26"/>
<polygon fill="#000000" stroke="#000000" points="698.199,-158.2124 705.1186,-150.1893 694.706,-152.1462 698.199,-158.2124"/>
</g>
<!-- drupal_lookup_path&#45;&gt;drupal_path_alias_whitelist_rebuild -->
<g id="edge13" class="edge">
<title>drupal_lookup_path&#45;&gt;drupal_path_alias_whitelist_rebuild</title>
<path fill="none" stroke="#000000" d="M552.7793,-277.8646C570.2386,-281.7294 587.6937,-288.9428 600.0078,-302 648.0377,-352.9281 580.1357,-405.9236 628.0078,-457 628.6768,-457.7138 629.3616,-458.41 630.0611,-459.089"/>
<polygon fill="#000000" stroke="#000000" points="628.1465,-462.0475 638.083,-465.724 632.608,-456.6535 628.1465,-462.0475"/>
</g>
<!-- drupal_get_path_alias -->
<g id="node42" class="node">
<title>drupal_get_path_alias</title>
<text text-anchor="middle" x="271.897" y="-222.8" font-family="Times,serif" font-size="14.00" fill="#000000">drupal_get_path_alias</text>
</g>
<!-- drupal_get_path_alias&#45;&gt;q -->
<g id="edge8" class="edge">
<title>drupal_get_path_alias&#45;&gt;q</title>
<path fill="none" stroke="#000000" d="M341.5892,-219.7667C481.809,-205.2134 794.9611,-172.7117 916.2764,-160.1205"/>
<polygon fill="#000000" stroke="#000000" points="916.8007,-163.5849 926.3859,-159.0712 916.078,-156.6223 916.8007,-163.5849"/>
</g>
<!-- drupal_get_path_alias&#45;&gt;drupal_lookup_path -->
<g id="edge9" class="edge">
<title>drupal_get_path_alias&#45;&gt;drupal_lookup_path</title>
<path fill="none" stroke="#000000" d="M341.5785,-242.4517C364.7211,-247.5835 390.5685,-253.3151 414.0469,-258.5214"/>
<polygon fill="#000000" stroke="#000000" points="413.4287,-261.9693 423.9493,-260.7172 414.9442,-255.1353 413.4287,-261.9693"/>
</g>
<!-- drupal_is_front_page -->
<g id="node43" class="node">
<title>drupal_is_front_page</title>
<text text-anchor="middle" x="736.708" y="-219.8" font-family="Times,serif" font-size="14.00" fill="#000000">drupal_is_front_page</text>
</g>
<!-- drupal_is_front_page&#45;&gt;q -->
<g id="edge10" class="edge">
<title>drupal_is_front_page&#45;&gt;q</title>
<path fill="none" stroke="#000000" d="M798.543,-205.9398C813.8689,-201.4241 830.2444,-196.5656 845.4082,-192 868.8878,-184.9306 894.8991,-176.9434 916.7025,-170.2041"/>
<polygon fill="#000000" stroke="#000000" points="917.8816,-173.503 926.4,-167.2032 915.8123,-166.8159 917.8816,-173.503"/>
</g>
<!-- drupal_is_front_page&#45;&gt;variable_get -->
<g id="edge11" class="edge">
<title>drupal_is_front_page&#45;&gt;variable_get</title>
<path fill="none" stroke="#000000" d="M762.5212,-242.043C803.908,-270.9717 885.1385,-327.7505 931.34,-360.0446"/>
<polygon fill="#000000" stroke="#000000" points="929.3403,-362.917 939.5417,-365.7774 933.3507,-357.1797 929.3403,-362.917"/>
</g>
<!-- drupal_match_path -->
<g id="node44" class="node">
<title>drupal_match_path</title>
<text text-anchor="middle" x="736.708" y="-425.8" font-family="Times,serif" font-size="14.00" fill="#000000">drupal_match_path</text>
</g>
<!-- drupal_match_path&#45;&gt;variable_get -->
<g id="edge17" class="edge">
<title>drupal_match_path&#45;&gt;variable_get</title>
<path fill="none" stroke="#000000" d="M798.9546,-417.4911C834.5878,-410.3303 878.8133,-401.4428 912.7498,-394.623"/>
<polygon fill="#000000" stroke="#000000" points="913.8161,-397.9788 922.9305,-392.5771 912.4369,-391.116 913.8161,-397.9788"/>
</g>
<!-- drupal_path_initialize -->
<g id="node45" class="node">
<title>drupal_path_initialize</title>
<text text-anchor="middle" x="79.5415" y="-324.8" font-family="Times,serif" font-size="14.00" fill="#000000">drupal_path_initialize</text>
</g>
<!-- drupal_path_initialize&#45;&gt;q -->
<g id="edge21" class="edge">
<title>drupal_path_initialize&#45;&gt;q</title>
<path fill="none" stroke="#000000" d="M90.4803,-310.7437C108.5169,-282.3243 147.3013,-227.8804 195.083,-200 365.226,-100.7222 432.1666,-126.2348 628.0078,-105 724.0672,-94.5844 750.6565,-86.0793 845.4082,-105 872.2688,-110.3637 900.6356,-121.854 923.0633,-132.4684"/>
<polygon fill="#000000" stroke="#000000" points="921.7648,-135.7286 932.2898,-136.9434 924.8196,-129.4303 921.7648,-135.7286"/>
</g>
<!-- drupal_path_initialize&#45;&gt;variable_get -->
<g id="edge22" class="edge">
<title>drupal_path_initialize&#45;&gt;variable_get</title>
<path fill="none" stroke="#000000" d="M146.9527,-347.0576C162.6441,-350.6171 179.3612,-353.8975 195.083,-356 462.8649,-391.8109 787.3382,-388.5597 912.6743,-385.58"/>
<polygon fill="#000000" stroke="#000000" points="912.8567,-389.0767 922.767,-385.3303 912.6834,-382.0788 912.8567,-389.0767"/>
</g>
<!-- drupal_path_initialize&#45;&gt;drupal_get_normal_path -->
<g id="edge23" class="edge">
<title>drupal_path_initialize&#45;&gt;drupal_get_normal_path</title>
<path fill="none" stroke="#000000" d="M148.9862,-329C160.6724,-329 172.9304,-329 184.9922,-329"/>
<polygon fill="#000000" stroke="#000000" points="185.061,-332.5001 195.061,-329 185.061,-325.5001 185.061,-332.5001"/>
</g>
<!-- drupal_valid_path -->
<g id="node46" class="node">
<title>drupal_valid_path</title>
<text text-anchor="middle" x="79.5415" y="-977.8" font-family="Times,serif" font-size="14.00" fill="#000000">drupal_valid_path</text>
</g>
<!-- drupal_valid_path&#45;&gt;DBTNG -->
<g id="edge25" class="edge">
<title>drupal_valid_path&#45;&gt;DBTNG</title>
<path fill="none" stroke="#000000" d="M90.136,-963.7174C107.9707,-934.6174 146.8164,-877.9959 195.083,-848 308.728,-777.3739 354.5565,-780 488.3594,-780 488.3594,-780 488.3594,-780 736.708,-780 872.263,-780 1024.557,-720.2532 1096.0647,-688.4275"/>
<polygon fill="#000000" stroke="#000000" points="1097.5158,-691.6126 1105.199,-684.3175 1094.6435,-685.2291 1097.5158,-691.6126"/>
</g>
<!-- drupal_valid_path&#45;&gt;url_is_external -->
<g id="edge24" class="edge">
<title>drupal_valid_path&#45;&gt;url_is_external</title>
<path fill="none" stroke="#000000" d="M138.5617,-966.6586C161.8501,-960.6051 188.5732,-953.6588 211.9513,-947.582"/>
<polygon fill="#000000" stroke="#000000" points="212.948,-950.9393 221.7459,-945.0361 211.1869,-944.1644 212.948,-950.9393"/>
</g>
<!-- drupal_valid_path&#45;&gt;_menu_link_translate -->
<g id="edge26" class="edge">
<title>drupal_valid_path&#45;&gt;_menu_link_translate</title>
<path fill="none" stroke="#000000" d="M98.3356,-1000.2708C132.8997,-1033.8727 206.6071,-1105.5279 245.9263,-1143.7524"/>
<polygon fill="#000000" stroke="#000000" points="243.6999,-1146.4693 253.3098,-1150.9303 248.5793,-1141.4502 243.6999,-1146.4693"/>
</g>
<!-- drupal_valid_path&#45;&gt;menu_get_item -->
<g id="edge27" class="edge">
<title>drupal_valid_path&#45;&gt;menu_get_item</title>
<path fill="none" stroke="#000000" d="M138.5505,-994.4133C215.2629,-1010.5507 348.6219,-1038.6045 426.6413,-1055.0168"/>
<polygon fill="#000000" stroke="#000000" points="426.2989,-1058.5213 436.8052,-1057.1549 427.7399,-1051.6712 426.2989,-1058.5213"/>
</g>
<!-- path_delete -->
<g id="node47" class="node">
<title>path_delete</title>
<text text-anchor="middle" x="271.897" y="-660.8" font-family="Times,serif" font-size="14.00" fill="#000000">path_delete</text>
</g>
<!-- path_delete&#45;&gt;hook_path_delete -->
<g id="edge30" class="edge">
<title>path_delete&#45;&gt;hook_path_delete</title>
<path fill="none" stroke="#000000" d="M312.0453,-678.3563C333.5655,-685.4678 360.5524,-694.3097 384.7109,-702 396.4637,-705.7412 408.9867,-709.6626 421.1167,-713.427"/>
<polygon fill="#000000" stroke="#000000" points="420.1503,-716.7917 430.7381,-716.406 422.2207,-710.1049 420.1503,-716.7917"/>
</g>
<!-- path_delete&#45;&gt;DBTNG -->
<g id="edge29" class="edge">
<title>path_delete&#45;&gt;DBTNG</title>
<path fill="none" stroke="#000000" d="M312.0932,-666.673C333.627,-667.5067 360.6116,-668.4515 384.7109,-669 605.4193,-674.0229 660.6455,-672.8889 881.4082,-674 959.8104,-674.3946 979.4509,-676.4612 1057.8154,-674 1069.7924,-673.6238 1082.769,-672.9297 1094.6974,-672.176"/>
<polygon fill="#000000" stroke="#000000" points="1095.1111,-675.6563 1104.8586,-671.5047 1094.6496,-668.6716 1095.1111,-675.6563"/>
</g>
<!-- path_delete&#45;&gt;drupal_clear_path_cache -->
<g id="edge31" class="edge">
<title>path_delete&#45;&gt;drupal_clear_path_cache</title>
<path fill="none" stroke="#000000" d="M308.6334,-646.9011C330.3989,-636.6393 358.7216,-624.0769 384.7109,-615 390.7016,-612.9077 396.9369,-610.8935 403.2452,-608.9736"/>
<polygon fill="#000000" stroke="#000000" points="404.5937,-612.225 413.1935,-606.0368 402.6117,-605.5114 404.5937,-612.225"/>
</g>
<!-- path_load -->
<g id="node48" class="node">
<title>path_load</title>
<text text-anchor="middle" x="488.3594" y="-637.8" font-family="Times,serif" font-size="14.00" fill="#000000">path_load</text>
</g>
<!-- path_delete&#45;&gt;path_load -->
<g id="edge28" class="edge">
<title>path_delete&#45;&gt;path_load</title>
<path fill="none" stroke="#000000" d="M312.1046,-660.7278C349.1421,-656.7924 404.0523,-650.958 442.7208,-646.8493"/>
<polygon fill="#000000" stroke="#000000" points="443.0996,-650.3288 452.6738,-645.7917 442.3599,-643.368 443.0996,-650.3288"/>
</g>
<!-- path_load&#45;&gt;DBTNG -->
<g id="edge36" class="edge">
<title>path_load&#45;&gt;DBTNG</title>
<path fill="none" stroke="#000000" d="M524.1756,-643.4901C635.4765,-648.1207 975.0344,-662.2476 1094.8938,-667.2342"/>
<polygon fill="#000000" stroke="#000000" points="1094.9968,-670.7414 1105.1336,-667.6602 1095.2878,-663.7475 1094.9968,-670.7414"/>
</g>
<!-- path_get_admin_paths -->
<g id="node49" class="node">
<title>path_get_admin_paths</title>
<text text-anchor="middle" x="736.708" y="-571.8" font-family="Times,serif" font-size="14.00" fill="#000000">path_get_admin_paths</text>
</g>
<!-- path_get_admin_paths&#45;&gt;hook_admin_paths -->
<g id="edge32" class="edge">
<title>path_get_admin_paths&#45;&gt;hook_admin_paths</title>
<path fill="none" stroke="#000000" d="M808.193,-584.7442C835.5277,-588.0878 866.6875,-591.8994 894.0311,-595.2441"/>
<polygon fill="#000000" stroke="#000000" points="893.957,-598.761 904.308,-596.5012 894.807,-591.8128 893.957,-598.761"/>
</g>
<!-- path_get_admin_paths&#45;&gt;hook_admin_paths_alter -->
<g id="edge33" class="edge">
<title>path_get_admin_paths&#45;&gt;hook_admin_paths_alter</title>
<path fill="none" stroke="#000000" d="M808.193,-567.8804C830.361,-565.3624 855.0448,-562.5587 878.1686,-559.9322"/>
<polygon fill="#000000" stroke="#000000" points="878.7776,-563.3856 888.3187,-558.7793 877.9875,-556.4304 878.7776,-563.3856"/>
</g>
<!-- path_is_admin -->
<g id="node50" class="node">
<title>path_is_admin</title>
<text text-anchor="middle" x="488.3594" y="-475.8" font-family="Times,serif" font-size="14.00" fill="#000000">path_is_admin</text>
</g>
<!-- path_is_admin&#45;&gt;drupal_match_path -->
<g id="edge35" class="edge">
<title>path_is_admin&#45;&gt;drupal_match_path</title>
<path fill="none" stroke="#000000" d="M537.722,-470.0618C574.0516,-462.7476 624.002,-452.6911 664.7675,-444.4838"/>
<polygon fill="#000000" stroke="#000000" points="665.5386,-447.8988 674.6511,-442.4939 664.1569,-441.0365 665.5386,-447.8988"/>
</g>
<!-- path_is_admin&#45;&gt;path_get_admin_paths -->
<g id="edge34" class="edge">
<title>path_is_admin&#45;&gt;path_get_admin_paths</title>
<path fill="none" stroke="#000000" d="M537.7222,-489.3703C557.4032,-493.7663 580.0743,-499.6704 600.0078,-507 633.9337,-519.4747 670.3843,-538.1628 697.1074,-552.9449"/>
<polygon fill="#000000" stroke="#000000" points="695.6978,-556.1668 706.1339,-557.9941 699.1151,-550.0576 695.6978,-556.1668"/>
</g>
<!-- path_save -->
<g id="node51" class="node">
<title>path_save</title>
<text text-anchor="middle" x="271.897" y="-556.8" font-family="Times,serif" font-size="14.00" fill="#000000">path_save</text>
</g>
<!-- path_save&#45;&gt;hook_path_insert -->
<g id="edge38" class="edge">
<title>path_save&#45;&gt;hook_path_insert</title>
<path fill="none" stroke="#000000" d="M285.8555,-542.7666C305.3474,-518.5865 343.0449,-476.2634 384.7109,-453 396.0963,-446.6432 409.0215,-441.743 421.7886,-437.9785"/>
<polygon fill="#000000" stroke="#000000" points="422.7753,-441.3371 431.4927,-435.3157 420.923,-434.5867 422.7753,-441.3371"/>
</g>
<!-- path_save&#45;&gt;hook_path_update -->
<g id="edge39" class="edge">
<title>path_save&#45;&gt;hook_path_update</title>
<path fill="none" stroke="#000000" d="M308.1279,-556.4808C338.0511,-552.7484 381.4123,-547.3398 418.1046,-542.7631"/>
<polygon fill="#000000" stroke="#000000" points="418.7703,-546.2073 428.2602,-541.4963 417.9039,-539.2611 418.7703,-546.2073"/>
</g>
<!-- path_save&#45;&gt;drupal_clear_path_cache -->
<g id="edge40" class="edge">
<title>path_save&#45;&gt;drupal_clear_path_cache</title>
<path fill="none" stroke="#000000" d="M308.1279,-565.5192C333.2148,-568.6484 367.7469,-572.9557 399.8759,-576.9632"/>
<polygon fill="#000000" stroke="#000000" points="399.8516,-580.4872 410.2079,-578.2519 400.718,-573.541 399.8516,-580.4872"/>
</g>
<!-- path_save&#45;&gt;path_load -->
<g id="edge37" class="edge">
<title>path_save&#45;&gt;path_load</title>
<path fill="none" stroke="#000000" d="M305.2304,-579.039C327.3137,-590.4647 357.1808,-604.931 384.7109,-615 403.277,-621.7905 424.2979,-627.5974 442.5329,-632.0666"/>
<polygon fill="#000000" stroke="#000000" points="441.804,-635.4909 452.3435,-634.4097 443.4301,-628.6824 441.804,-635.4909"/>
</g>
</g>
</svg>
